<?xml version="1.0" standalone="no"?>
<!DOCTYPE svg PUBLIC "-//W3C//DTD SVG 20010904//EN"
 "http://www.w3.org/TR/2001/REC-SVG-20010904/DTD/svg10.dtd">
<svg version="1.0" xmlns="http://www.w3.org/2000/svg"
 width="408.000000pt" height="408.000000pt" viewBox="0 0 408.000000 408.000000"
 preserveAspectRatio="xMidYMid meet">
<metadata>
Created by potrace 1.15, written by Peter Selinger 2001-2017
</metadata>
<g transform="translate(0.000000,408.000000) scale(0.100000,-0.100000)"
fill="#000000" stroke="none">
<path d="M400 2045 l0 -1675 1108 0 c654 0 1145 4 1200 10 308 33 573 182 755
425 70 93 147 248 176 353 96 351 3 737 -246 1011 l-55 61 25 73 c90 261 71
561 -52 812 -138 280 -401 497 -693 569 -132 32 -253 36 -1235 36 l-983 0 0
-1675z m2185 1406 c298 -100 506 -323 576 -617 27 -115 27 -271 -1 -379 -21
-81 -73 -204 -110 -255 -11 -15 -20 -30 -20 -32 0 -3 21 -20 48 -38 85 -61
164 -143 223 -233 89 -135 126 -249 136 -417 13 -239 -79 -464 -260 -636 -123
-118 -266 -190 -432 -219 -152 -26 -128 -46 -228 198 -48 118 -87 221 -87 229
0 14 21 17 133 20 124 3 136 5 199 35 82 39 145 100 184 179 26 53 29 69 29
154 0 87 -3 101 -33 162 -40 83 -119 158 -200 190 -54 21 -72 23 -344 26
l-286 3 -70 172 c-114 279 -113 277 -99 282 6 2 125 6 262 7 l250 3 57 29
c230 116 284 399 112 585 -36 40 -73 67 -116 87 l-63 29 -513 3 c-495 3 -513
2 -508 -16 3 -10 222 -549 485 -1198 264 -648 476 -1182 472 -1187 -4 -4 -114
-6 -245 -5 l-237 3 -580 1424 c-318 784 -579 1429 -579 1433 0 5 399 7 888 6
l887 -3 70 -24z m-1783 -654 c81 -199 312 -769 514 -1265 223 -552 362 -908
357 -913 -5 -5 -110 -8 -243 -7 l-233 3 -281 685 -281 685 -3 574 c-1 316 0
581 2 588 3 7 9 13 13 13 4 0 74 -163 155 -363z m1579 -17 c46 -13 86 -52 100
-100 10 -31 8 -44 -9 -83 -36 -80 -41 -82 -327 -85 -137 -1 -255 1 -260 5 -18
13 -108 242 -101 258 5 13 44 15 283 15 156 0 294 -5 314 -10z m285 -1216 c69
-33 95 -125 54 -192 -32 -53 -71 -63 -222 -60 l-132 3 -48 115 c-26 63 -48
123 -48 133 0 16 15 17 181 17 145 0 188 -3 215 -16z m-1846 -543 c88 -216
157 -397 154 -402 -3 -5 -79 -9 -169 -9 -139 0 -164 2 -169 16 -8 22 -8 789 1
798 4 3 10 3 15 -2 4 -4 80 -185 168 -401z"/>
</g>
</svg>
